<svg width="38" height="34" viewBox="0 0 38 34" fill="none" xmlns="http://www.w3.org/2000/svg">
<path d="M18.9998 4.44157L4.33317 10.3082V29.8332H7.99984V18.8332C7.99984 17.8249 8.35917 16.962 9.07784 16.2446C9.7965 15.5271 10.6594 15.1678 11.6665 15.1666H26.3332C27.3415 15.1666 28.205 15.5259 28.9237 16.2446C29.6423 16.9632 30.0011 17.8261 29.9998 18.8332V29.8332H33.6665V10.3082L18.9998 4.44157ZM0.666504 29.8332V10.3082C0.666504 9.54435 0.87306 8.85685 1.28617 8.24574C1.69928 7.63462 2.25661 7.19157 2.95817 6.91657L17.6248 1.0499C18.0526 0.866569 18.5109 0.774902 18.9998 0.774902C19.4887 0.774902 19.9471 0.866569 20.3748 1.0499L35.0415 6.91657C35.7443 7.19157 36.3022 7.63462 36.7153 8.24574C37.1284 8.85685 37.3344 9.54435 37.3332 10.3082V29.8332C37.3332 30.8416 36.9744 31.7051 36.257 32.4237C35.5396 33.1424 34.6761 33.5011 33.6665 33.4999H26.3332V18.8332H11.6665V33.4999H4.33317C3.32484 33.4999 2.46195 33.1412 1.7445 32.4237C1.02706 31.7063 0.667726 30.8428 0.666504 29.8332ZM13.4998 33.4999V29.8332H17.1665V33.4999H13.4998ZM17.1665 27.9999V24.3332H20.8332V27.9999H17.1665ZM20.8332 33.4999V29.8332H24.4998V33.4999H20.8332Z" fill="#4CAF50"/>
</svg>
