<svg width="38" height="40" viewBox="0 0 38 40" fill="none" xmlns="http://www.w3.org/2000/svg">
<path d="M37.3332 6.17711C37.1132 2.00933 25.7587 0.884888 18.9998 0.884888C12.2409 0.884888 0.666504 2.02155 0.666504 6.28711V33.8971C0.666504 38.1627 12.1921 39.3116 18.9998 39.3116C25.8076 39.3116 37.3332 38.1749 37.3332 33.8971V6.17711ZM34.8887 15.4171C34.4854 16.4682 28.7043 18.4116 18.9998 18.4116C14.4608 18.5265 9.9298 17.9663 5.55539 16.7493V19.2916C9.95144 20.3863 14.4699 20.9121 18.9998 20.856C23.8887 20.856 31.1365 20.2693 34.8887 18.4116V24.7304C34.4854 25.7816 28.7043 27.7249 18.9998 27.7249C14.4583 27.8239 9.92732 27.2472 5.55539 26.0138V28.556C9.95144 29.6508 14.4699 30.1766 18.9998 30.1204C23.8887 30.1204 31.1365 29.5338 34.8887 27.676V33.9093C34.4609 34.9604 28.6798 36.9038 18.9998 36.9038C9.31984 36.9038 3.47762 34.9116 3.11095 33.8971V6.336C3.47762 5.33378 9.22206 3.32933 18.9998 3.32933C28.4965 3.32933 34.2287 5.19933 34.8887 6.226C34.2532 7.28933 28.5209 9.14711 18.9998 9.14711C14.4608 9.26023 9.93015 8.70007 5.55539 7.48489V10.0393C9.95245 11.1273 14.4705 11.649 18.9998 11.5916C23.8887 11.5916 31.1365 11.0049 34.8887 9.14711V15.4171Z" fill="#4CAF50"/>
</svg>
