<svg width="44" height="38" viewBox="0 0 44 38" fill="none" xmlns="http://www.w3.org/2000/svg">
<path d="M9.59567 11.1716C10.9177 9.07713 12.7486 7.35154 14.9176 6.15577C17.0866 4.96001 19.5232 4.33303 22 4.33329C24.4771 4.33272 26.914 4.95955 29.0834 6.15533C31.2528 7.35111 33.084 9.07687 34.4062 11.1716L37.5045 9.20996C35.8515 6.59282 33.5628 4.43682 30.8517 2.94294C28.1406 1.44907 25.0954 0.665959 22 0.666626C18.9049 0.666269 15.86 1.44952 13.1493 2.94338C10.4385 4.43724 8.15013 6.59308 6.49733 9.20996L9.59567 11.1716ZM22 33.6666C19.5232 33.6669 17.0866 33.0399 14.9176 31.8441C12.7486 30.6484 10.9177 28.9228 9.59567 26.8283L6.49733 28.79C8.15013 31.4068 10.4385 33.5627 13.1493 35.0565C15.86 36.5504 18.9049 37.3337 22 37.3333C25.0954 37.334 28.1406 36.5509 30.8517 35.057C33.5628 33.5631 35.8515 31.4071 37.5045 28.79L34.4062 26.8283C33.084 28.9231 31.2528 30.6488 29.0834 31.8446C26.914 33.0404 24.4771 33.6672 22 33.6666ZM22 19C23.4587 19 24.8576 18.4205 25.8891 17.389C26.9205 16.3576 27.5 14.9587 27.5 13.5C27.5 12.0413 26.9205 10.6423 25.8891 9.61087C24.8576 8.57942 23.4587 7.99996 22 7.99996C20.5413 7.99996 19.1424 8.57942 18.1109 9.61087C17.0795 10.6423 16.5 12.0413 16.5 13.5C16.5 14.9587 17.0795 16.3576 18.1109 17.389C19.1424 18.4205 20.5413 19 22 19ZM22 20.8333C23.9449 20.8333 25.8102 21.6059 27.1855 22.9812C28.5607 24.3564 29.3333 26.2217 29.3333 28.1666H14.6667C14.6667 26.2217 15.4393 24.3564 16.8146 22.9812C18.1898 21.6059 20.0551 20.8333 22 20.8333ZM11 19C11 20.4587 10.4205 21.8576 9.38909 22.889C8.35764 23.9205 6.95869 24.5 5.5 24.5C4.04131 24.5 2.64236 23.9205 1.61091 22.889C0.579463 21.8576 0 20.4587 0 19C0 17.5413 0.579463 16.1423 1.61091 15.1109C2.64236 14.0794 4.04131 13.5 5.5 13.5C6.95869 13.5 8.35764 14.0794 9.38909 15.1109C10.4205 16.1423 11 17.5413 11 19ZM38.5 24.5C39.9587 24.5 41.3576 23.9205 42.3891 22.889C43.4205 21.8576 44 20.4587 44 19C44 17.5413 43.4205 16.1423 42.3891 15.1109C41.3576 14.0794 39.9587 13.5 38.5 13.5C37.0413 13.5 35.6424 14.0794 34.6109 15.1109C33.5795 16.1423 33 17.5413 33 19C33 20.4587 33.5795 21.8576 34.6109 22.889C35.6424 23.9205 37.0413 24.5 38.5 24.5Z" fill="#4CAF50"/>
</svg>
