<svg width="29" height="40" viewBox="0 0 29 40" fill="none" xmlns="http://www.w3.org/2000/svg">
<path d="M23.6064 0.0678711L21.1951 7.57941L23.6244 8.08996L23.3581 9.40928L18.8679 13.5208L14.4421 9.81473L12.4308 9.46299C13.137 8.2315 13.6927 6.64682 13.8406 5.201C14.7016 5.00507 16.8415 4.71331 17.8018 4.33656C17.3723 3.45269 15.2067 2.8837 13.6166 2.9344C13.4677 1.15438 12.8535 0.437574 10.6814 0.536574C8.50925 0.635488 7.84788 1.10385 8.08953 3.66668C6.46823 4.02134 4.81557 4.75086 4.67437 5.99421C5.3507 5.96782 7.50687 5.74533 8.17409 5.73545C8.23081 6.94717 8.55222 8.12855 9.03089 8.86143L6.0095 8.33506L0.109375 14.8367L6.75612 19.6385L6.89577 21.086L3.95757 39.627H7.25542L10.5481 25.0821L14.6622 39.627H17.8823L17.576 38.2171L19.045 39.627L24.4644 11.9095C24.895 11.5193 25.2606 11.1806 25.5037 10.9373C25.5189 10.0318 25.2857 9.3095 25.066 8.83186L25.1494 8.4106L27.4902 8.9025L28.2158 0.900262L26.2525 6.81113L25.3203 6.61725L25.8905 0.373207L24.037 6.35016L23.073 6.14967L23.6064 0.0678711ZM25.8905 0.373207L25.8906 0.372348H25.8905V0.373207ZM6.71316 11.1817L6.74272 16.6898L4.03569 14.6488L6.71316 11.1817ZM14.2783 13.008L18.6504 16.9557C18.6504 16.9557 20.6264 15.2837 22.5068 13.6445L17.5708 38.1849L13.8916 21.2098L14.2783 13.008Z" fill="#4CAF50"/>
</svg>
