<svg width="32" height="38" viewBox="0 0 32 38" fill="none" xmlns="http://www.w3.org/2000/svg">
<path d="M29.75 7.62534C27.877 7.62519 26.0204 7.97494 24.2758 8.65659C21.8145 3.5519 16.8422 1.01502 16.6153 0.901585C16.4243 0.805994 16.2136 0.756226 16 0.756226C15.7864 0.756226 15.5757 0.805994 15.3847 0.901585C15.1561 1.01502 10.1855 3.5519 7.72422 8.65659C5.97962 7.97494 4.12304 7.62519 2.25 7.62534C1.88533 7.62534 1.53559 7.7702 1.27773 8.02806C1.01987 8.28593 0.875 8.63566 0.875 9.00034V22.7503C0.875 26.7617 2.46852 30.6088 5.30501 33.4453C8.1415 36.2818 11.9886 37.8753 16 37.8753C20.0114 37.8753 23.8585 36.2818 26.695 33.4453C29.5315 30.6088 31.125 26.7617 31.125 22.7503V9.00034C31.125 8.63566 30.9801 8.28593 30.7223 8.02806C30.4644 7.7702 30.1147 7.62534 29.75 7.62534ZM14.625 35.0497C11.6012 34.7078 8.80888 33.2653 6.78025 30.9971C4.75163 28.7288 3.62853 25.7934 3.625 22.7503V20.076C6.64881 20.4178 9.44112 21.8604 11.4697 24.1286C13.4984 26.3969 14.6215 29.3323 14.625 32.3753V35.0497ZM14.625 23.6888C13.364 21.8915 11.7269 20.3903 9.82734 19.2894C7.92778 18.1886 5.81132 17.5145 3.625 17.3139V10.451C6.64881 10.7928 9.44112 12.2354 11.4697 14.5036C13.4984 16.7719 14.6215 19.7073 14.625 22.7503V23.6888ZM10.182 9.87862C11.7667 6.5769 14.7212 4.49377 16 3.7083C17.2787 4.49549 20.2333 6.57862 21.8162 9.87862C19.2743 11.4516 17.2515 13.7381 16 16.4528C14.7483 13.7377 12.7249 11.4511 10.182 9.87862ZM28.375 22.7503C28.3715 25.7934 27.2484 28.7288 25.2197 30.9971C23.1911 33.2653 20.3988 34.7078 17.375 35.0497V32.3753C17.3785 29.3323 18.5016 26.3969 20.5303 24.1286C22.5589 21.8604 25.3512 20.4178 28.375 20.076V22.7503ZM28.375 17.3139C26.1887 17.5145 24.0722 18.1886 22.1727 19.2894C20.2731 20.3903 18.636 21.8915 17.375 23.6888V22.7503C17.3785 19.7073 18.5016 16.7719 20.5303 14.5036C22.5589 12.2354 25.3512 10.7928 28.375 10.451V17.3139Z" fill="#4CAF50"/>
</svg>
